<svg xmlns="http://www.w3.org/2000/svg" xmlns:xlink="http://www.w3.org/1999/xlink" viewBox="0 0 501 501"><defs><style>.cls-1{fill:none;}.cls-2{fill:url(#radial-gradient);}.cls-3{fill:url(#radial-gradient-2);}.cls-4{fill:#018292;}.cls-5{fill:url(#radial-gradient-3);}.cls-6{fill:url(#radial-gradient-4);}.cls-7{fill:url(#radial-gradient-5);}.cls-8{fill:url(#radial-gradient-6);}.cls-9{fill:url(#radial-gradient-7);}.cls-10{fill:url(#radial-gradient-8);}.cls-11{fill:url(#radial-gradient-9);}.cls-12{fill:url(#radial-gradient-10);}.cls-13{fill:url(#radial-gradient-11);}.cls-14{fill:url(#radial-gradient-12);}.cls-15{fill:url(#radial-gradient-13);}.cls-16{fill:url(#radial-gradient-14);}.cls-17{fill:url(#radial-gradient-15);}.cls-18{fill:url(#radial-gradient-16);}.cls-19{fill:url(#radial-gradient-17);}.cls-20{fill:url(#radial-gradient-18);}.cls-21{fill:url(#radial-gradient-19);}.cls-22{fill:url(#radial-gradient-20);}.cls-23{fill:url(#radial-gradient-21);}.cls-24{fill:url(#radial-gradient-22);}.cls-25{fill:url(#radial-gradient-23);}.cls-26{fill:url(#radial-gradient-24);}.cls-27{fill:url(#radial-gradient-25);}.cls-28{fill:url(#radial-gradient-26);}.cls-29{fill:url(#radial-gradient-27);}.cls-30{fill:url(#radial-gradient-28);}.cls-31{stroke-miterlimit:10;fill:url(#New_Pattern);stroke:url(#New_Pattern);}</style><radialGradient id="radial-gradient" cx="141597.87" cy="-21072.97" r="3.57" gradientTransform="matrix(-0.72, 0.52, 0.49, 0.68, 112521.38, -58965.61)" gradientUnits="userSpaceOnUse"><stop offset="0" stop-color="#006aff"/><stop offset="0.01" stop-color="#006aff" stop-opacity="0.96"/><stop offset="0.05" stop-color="#006aff" stop-opacity="0.78"/><stop offset="0.09" stop-color="#006aff" stop-opacity="0.61"/><stop offset="0.14" stop-color="#006aff" stop-opacity="0.47"/><stop offset="0.2" stop-color="#006aff" stop-opacity="0.34"/><stop offset="0.25" stop-color="#006aff" stop-opacity="0.23"/><stop offset="0.32" stop-color="#006aff" stop-opacity="0.15"/><stop offset="0.4" stop-color="#006aff" stop-opacity="0.08"/><stop offset="0.49" stop-color="#006aff" stop-opacity="0.03"/><stop offset="0.63" stop-color="#006aff" stop-opacity="0.01"/><stop offset="1" stop-color="#006aff" stop-opacity="0"/></radialGradient><radialGradient id="radial-gradient-2" cx="141597.87" cy="-21072.97" r="2.89" gradientTransform="matrix(-0.72, 0.52, 0.49, 0.68, 112521.38, -58965.61)" gradientUnits="userSpaceOnUse"><stop offset="0" stop-color="#02689b"/><stop offset="0.19" stop-color="#104d9a" stop-opacity="0.74"/><stop offset="0.46" stop-color="#212d9a" stop-opacity="0.42"/><stop offset="0.69" stop-color="#2d1599" stop-opacity="0.19"/><stop offset="0.88" stop-color="#340699" stop-opacity="0.05"/><stop offset="1" stop-color="#370199" stop-opacity="0"/></radialGradient><radialGradient id="radial-gradient-3" cx="141250.75" cy="-20811.81" r="3.57" xlink:href="#radial-gradient"/><radialGradient id="radial-gradient-4" cx="141250.75" cy="-20811.81" r="2.89" xlink:href="#radial-gradient-2"/><radialGradient id="radial-gradient-5" cx="58681.65" cy="-135077.8" r="2.45" gradientTransform="matrix(0.12, 0.88, 0.82, -0.11, 104767.39, -66694.96)" xlink:href="#radial-gradient"/><radialGradient id="radial-gradient-6" cx="58681.65" cy="-135077.8" r="1.98" gradientTransform="matrix(0.12, 0.88, 0.82, -0.11, 104767.39, -66694.96)" xlink:href="#radial-gradient-2"/><radialGradient id="radial-gradient-7" cx="58661.67" cy="-135363.99" r="2.45" gradientTransform="matrix(0.12, 0.88, 0.82, -0.11, 104767.39, -66694.96)" xlink:href="#radial-gradient"/><radialGradient id="radial-gradient-8" cx="58661.67" cy="-135363.99" r="1.98" gradientTransform="matrix(0.12, 0.88, 0.82, -0.11, 104767.39, -66694.96)" xlink:href="#radial-gradient-2"/><radialGradient id="radial-gradient-9" cx="102867.87" cy="95171.96" r="1.3" gradientTransform="matrix(-0.85, -0.25, -0.24, 0.8, 110315.84, -49546.96)" xlink:href="#radial-gradient"/><radialGradient id="radial-gradient-10" cx="102867.87" cy="95171.96" r="1.05" gradientTransform="matrix(-0.85, -0.25, -0.24, 0.8, 110315.84, -49546.96)" xlink:href="#radial-gradient-2"/><radialGradient id="radial-gradient-11" cx="58620.56" cy="-135469.32" r="1.23" gradientTransform="matrix(0.12, 0.88, 0.82, -0.11, 104767.39, -66694.96)" xlink:href="#radial-gradient"/><radialGradient id="radial-gradient-12" cx="58620.56" cy="-135469.32" r="0.99" gradientTransform="matrix(0.12, 0.88, 0.82, -0.11, 104767.39, -66694.96)" xlink:href="#radial-gradient-2"/><radialGradient id="radial-gradient-13" cx="141602.47" cy="-20548.08" r="2.87" xlink:href="#radial-gradient"/><radialGradient id="radial-gradient-14" cx="141602.47" cy="-20548.08" r="2.32" xlink:href="#radial-gradient-2"/><radialGradient id="radial-gradient-15" cx="141537.33" cy="-20665.97" r="1.26" xlink:href="#radial-gradient"/><radialGradient id="radial-gradient-16" cx="141537.33" cy="-20665.97" r="1.02" xlink:href="#radial-gradient-2"/><radialGradient id="radial-gradient-17" cx="141462.2" cy="-20751.65" r="1.26" xlink:href="#radial-gradient"/><radialGradient id="radial-gradient-18" cx="141462.2" cy="-20751.65" r="1.02" xlink:href="#radial-gradient-2"/><radialGradient id="radial-gradient-19" cx="141368" cy="-20787.27" r="1.26" xlink:href="#radial-gradient"/><radialGradient id="radial-gradient-20" cx="141368" cy="-20787.27" r="1.02" xlink:href="#radial-gradient-2"/><radialGradient id="radial-gradient-21" cx="141816.54" cy="-20716.41" r="3.57" xlink:href="#radial-gradient"/><radialGradient id="radial-gradient-22" cx="141816.54" cy="-20716.41" r="2.89" xlink:href="#radial-gradient-2"/><radialGradient id="radial-gradient-23" cx="141635.96" cy="-20652.84" r="3.57" xlink:href="#radial-gradient"/><radialGradient id="radial-gradient-24" cx="141635.96" cy="-20652.84" r="2.89" xlink:href="#radial-gradient-2"/><radialGradient id="radial-gradient-25" cx="141447.31" cy="-20513.14" r="3.57" xlink:href="#radial-gradient"/><radialGradient id="radial-gradient-26" cx="141447.31" cy="-20513.14" r="2.89" xlink:href="#radial-gradient-2"/><radialGradient id="radial-gradient-27" cx="141516.84" cy="-20928.45" r="3.57" xlink:href="#radial-gradient"/><radialGradient id="radial-gradient-28" cx="141516.84" cy="-20928.45" r="2.89" xlink:href="#radial-gradient-2"/><pattern id="New_Pattern" data-name="New Pattern" width="500" height="500" patternUnits="userSpaceOnUse" viewBox="0 0 500 500"><rect class="cls-1" width="500" height="500"/><path class="cls-2" d="M44.27,84.18a3.18,3.18,0,1,1,4.31.56A3.08,3.08,0,0,1,44.27,84.18Z"/><path class="cls-3" d="M44.76,83.82a2.57,2.57,0,1,1,3.49.46A2.49,2.49,0,0,1,44.76,83.82Z"/><polygon class="cls-4" points="47.87 81.58 47.55 81.13 45.87 81.61 45.76 83.1 46.41 84.01 48.04 82.39 47.87 81.58"/><path class="cls-5" d="M421.67,81.13a3.18,3.18,0,1,1,4.31.57A3.07,3.07,0,0,1,421.67,81.13Z"/><path class="cls-6" d="M422.16,80.78a2.57,2.57,0,1,1,3.49.46A2.49,2.49,0,0,1,422.16,80.78Z"/><polygon class="cls-4" points="425.27 78.54 424.94 78.09 423.27 78.56 423.16 80.06 423.81 80.96 425.44 79.35 425.27 78.54"/><path class="cls-7" d="M425.73,245.82a2.18,2.18,0,1,1,1.73-2.44A2.13,2.13,0,0,1,425.73,245.82Z"/><path class="cls-8" d="M425.68,245.4a1.7,1.7,0,0,1-1.88-1.52,1.65,1.65,0,1,1,3.27-.45A1.7,1.7,0,0,1,425.68,245.4Z"/><polygon class="cls-4" points="425.31 242.8 424.94 242.85 424.69 244.02 425.56 244.56 426.31 244.46 425.86 242.96 425.31 242.8"/><path class="cls-9" d="M187.28,260.61a2.18,2.18,0,1,1,1.73-2.44A2.11,2.11,0,0,1,187.28,260.61Z"/><path class="cls-10" d="M187.23,260.19a1.77,1.77,0,1,1,1.39-2A1.7,1.7,0,0,1,187.23,260.19Z"/><polygon class="cls-4" points="186.87 257.59 186.49 257.64 186.24 258.81 187.11 259.36 187.87 259.25 187.41 257.75 186.87 257.59"/><path class="cls-11" d="M142.13,327a1.16,1.16,0,1,1,.8,1.37A1.13,1.13,0,0,1,142.13,327Z"/><path class="cls-12" d="M142.34,327.1a.94.94,0,1,1,.65,1.1A.91.91,0,0,1,142.34,327.1Z"/><polygon class="cls-4" points="143.68 327.49 143.73 327.3 143.23 326.92 142.77 327.22 142.66 327.61 143.48 327.72 143.68 327.49"/><path class="cls-13" d="M95.32,235.25a1.09,1.09,0,1,1,.86-1.22A1,1,0,0,1,95.32,235.25Z"/><path class="cls-14" d="M95.29,235.05a.86.86,0,0,1-.94-.77.85.85,0,0,1,.7-1,.86.86,0,0,1,.94.76A.87.87,0,0,1,95.29,235.05Z"/><polygon class="cls-4" points="95.11 233.74 94.92 233.77 94.79 234.35 95.23 234.63 95.61 234.57 95.38 233.82 95.11 233.74"/><path class="cls-15" d="M296.18,441.24a2.56,2.56,0,1,1,3.47.46A2.47,2.47,0,0,1,296.18,441.24Z"/><path class="cls-16" d="M296.58,441a2.07,2.07,0,1,1,2.8.36A2,2,0,0,1,296.58,441Z"/><polygon class="cls-4" points="299.08 439.15 298.82 438.79 297.47 439.17 297.38 440.37 297.9 441.1 299.21 439.8 299.08 439.15"/><path class="cls-17" d="M287.17,326.94a1.12,1.12,0,1,1,1.53.2A1.09,1.09,0,0,1,287.17,326.94Z"/><path class="cls-18" d="M287.35,326.81a.86.86,0,0,1,.24-1.21.87.87,0,0,1,1.23.16.88.88,0,0,1-.24,1.22A.87.87,0,0,1,287.35,326.81Z"/><polygon class="cls-4" points="288.44 326.02 288.33 325.86 287.74 326.03 287.7 326.56 287.93 326.88 288.5 326.31 288.44 326.02"/><path class="cls-19" d="M299.84,230.09a1.13,1.13,0,1,1,1.53.2A1.09,1.09,0,0,1,299.84,230.09Z"/><path class="cls-20" d="M300,230a.91.91,0,0,1,1.47-1.06A.91.91,0,0,1,300,230Z"/><polygon class="cls-4" points="301.12 229.18 301 229.01 300.41 229.18 300.37 229.71 300.6 230.03 301.17 229.46 301.12 229.18"/><path class="cls-21" d="M350.58,157.24a1.12,1.12,0,1,1,1.52.2A1.09,1.09,0,0,1,350.58,157.24Z"/><path class="cls-22" d="M350.75,157.11a.91.91,0,1,1,1.24.16A.89.89,0,0,1,350.75,157.11Z"/><polygon class="cls-4" points="351.85 156.32 351.74 156.16 351.15 156.33 351.11 156.85 351.34 157.18 351.91 156.6 351.85 156.32"/><path class="cls-23" d="M59.41,438.56a3.18,3.18,0,1,1,4.31.57A3.08,3.08,0,0,1,59.41,438.56Z"/><path class="cls-24" d="M59.9,438.21a2.58,2.58,0,1,1,3.49.45A2.49,2.49,0,0,1,59.9,438.21Z"/><polygon class="cls-4" points="63.01 435.97 62.69 435.51 61.02 435.99 60.9 437.48 61.55 438.39 63.18 436.77 63.01 435.97"/><path class="cls-25" d="M220.65,388.07a3.18,3.18,0,1,1,4.31.57A3.07,3.07,0,0,1,220.65,388.07Z"/><path class="cls-26" d="M221.14,387.72a2.58,2.58,0,1,1,3.49.46A2.5,2.5,0,0,1,221.14,387.72Z"/><polygon class="cls-4" points="224.25 385.48 223.93 385.03 222.26 385.5 222.14 387 222.79 387.9 224.42 386.29 224.25 385.48"/><path class="cls-27" d="M424.67,384.91a3.18,3.18,0,1,1,4.32.56A3.08,3.08,0,0,1,424.67,384.91Z"/><path class="cls-28" d="M425.17,384.55a2.57,2.57,0,1,1,3.49.46A2.49,2.49,0,0,1,425.17,384.55Z"/><polygon class="cls-4" points="428.28 382.31 427.95 381.86 426.28 382.34 426.16 383.83 426.81 384.74 428.44 383.12 428.28 382.31"/><path class="cls-29" d="M172.92,140a3.18,3.18,0,1,1,4.31.57A3.09,3.09,0,0,1,172.92,140Z"/><path class="cls-30" d="M173.41,139.64a2.57,2.57,0,1,1,3.49.45A2.49,2.49,0,0,1,173.41,139.64Z"/><polygon class="cls-4" points="176.52 137.4 176.19 136.94 174.52 137.42 174.41 138.91 175.06 139.82 176.69 138.2 176.52 137.4"/></pattern></defs><title>pattern_1</title><g id="Layer_2" data-name="Layer 2"><g id="screen8"><rect class="cls-31" x="0.5" y="0.5" width="500" height="500"/></g></g></svg>